<svg xmlns="http://www.w3.org/2000/svg" width="1200" height="630" viewBox="0 0 1200 630">
  <rect width="1200" height="630" fill="#10210d"/>
  <circle cx="1060" cy="90" r="250" fill="#7fc92b" opacity=".15"/>
  <circle cx="1120" cy="610" r="330" fill="#1f9d6a" opacity=".12"/>
  <g transform="translate(72 66) scale(2)">
    <path fill="#9DDE47" d="M4.5 9.2c0-1.2 1.2-2 2.3-1.6l6.7 2.7v12.8l-6.7 2.7a1.7 1.7 0 0 1-2.3-1.6v-15Z"/>
    <path fill="#FFFFFF" d="m15.9 8.8 9.2-3.7c1.1-.5 2.4.4 2.4 1.6v18.6c0 1.2-1.3 2.1-2.4 1.6l-8.6-3.4V13.3l-1.2-.5c-1.8-.7-1.7-3.2.1-3.8l.5-.2Z"/>
  </g>
  <text x="152" y="112" fill="#fff" font-family="Arial,Helvetica,sans-serif" font-size="40" font-weight="800">scout</text>
  <text x="72" y="275" fill="#fff" font-family="Arial,Helvetica,sans-serif" font-size="78" font-weight="800">We apply to jobs for you.</text>
  <text x="72" y="365" fill="#b4ef6f" font-family="Arial,Helvetica,sans-serif" font-size="54" font-weight="700">Human Assistant or AI Assistant.</text>
  <text x="72" y="470" fill="#d7f4e4" font-family="Arial,Helvetica,sans-serif" font-size="30">Tailored applications. Visible tracking. Your time back.</text>
  <text x="72" y="558" fill="#fff" opacity=".7" font-family="Arial,Helvetica,sans-serif" font-size="25" font-weight="600">getscout.app</text>
</svg>
